<svg width="1080" height="1080" viewBox="0 0 1080 1080" fill="none" xmlns="http://www.w3.org/2000/svg">
<path d="M1036 228.582V568.752C1036 603.314 1007.98 631.334 973.418 631.334H951.076C947.671 631.334 945.268 634.67 946.347 637.899L981.139 742.265C982.042 744.974 979.104 747.346 976.647 745.908L805.138 645.13C789.758 636.1 772.253 631.334 754.417 631.334H722.953V389.042C722.953 337.662 681.154 295.854 629.773 295.854H399.234V228.582C399.234 194.02 427.254 166 461.808 166H973.418C1007.98 166 1036 194.019 1036 228.582Z" fill="#E51D5C"/>
<path d="M618.192 334.319H106.582C72.0199 334.319 44 362.339 44 396.9V737.071C44 771.633 72.0199 799.653 106.582 799.653H128.924C132.329 799.653 134.731 802.989 133.653 806.21L98.8613 910.585C97.9582 913.293 100.896 915.665 103.352 914.219L274.869 813.449C290.241 804.413 307.747 799.653 325.583 799.653H618.191C652.753 799.653 680.765 771.633 680.765 737.072V396.901C680.766 362.339 652.754 334.319 618.192 334.319ZM181.082 624.487C150.946 624.487 126.517 600.058 126.517 569.923C126.517 539.788 150.946 515.359 181.082 515.359C211.217 515.359 235.646 539.788 235.646 569.923C235.646 600.058 211.217 624.487 181.082 624.487ZM359.837 624.487C329.702 624.487 305.273 600.058 305.273 569.923C305.273 539.788 329.702 515.359 359.837 515.359C389.973 515.359 414.402 539.788 414.402 569.923C414.402 600.058 389.973 624.487 359.837 624.487ZM538.593 624.487C508.458 624.487 484.029 600.058 484.029 569.923C484.029 539.788 508.458 515.359 538.593 515.359C568.728 515.359 593.158 539.788 593.158 569.923C593.158 600.058 568.728 624.487 538.593 624.487Z" fill="#325CA5"/>
<path d="M677.731 439.788C705.224 412.295 705.224 367.721 677.731 340.228C650.239 312.736 605.665 312.736 578.172 340.228C550.68 367.721 550.68 412.295 578.172 439.788C605.665 467.28 650.239 467.28 677.731 439.788Z" fill="#A3C63E"/>
<path d="M637.222 426.781H621.678V384.225L621.828 377.233L622.08 369.586C619.498 372.169 617.704 373.862 616.698 374.667L608.246 381.458L600.752 372.102L624.444 353.239H637.222V426.781Z" fill="white"/>
</svg>
